<svg width="20" height="20" viewBox="0 0 20 20" fill="none" xmlns="http://www.w3.org/2000/svg">
<path fill-rule="evenodd" clip-rule="evenodd" d="M0 4.21874V15.7813C0 17.9099 1.72557 19.6355 3.85418 19.6355H15.4167C17.5453 19.6355 19.2709 17.9099 19.2709 15.7813V4.21874C19.2709 2.09014 17.5453 0.364563 15.4167 0.364563H3.85418C1.72557 0.364563 0 2.09014 0 4.21874ZM15.4702 1.70281H14.2658C10.4116 1.70281 8.19011 4.16521 8.19011 7.93909V8.58597C7.74629 8.4587 7.28684 8.39412 6.82512 8.39412C4.09045 8.39412 1.87357 10.611 1.87357 13.3457C1.87357 16.0803 4.09045 18.2971 6.82512 18.2971C9.55978 18.2971 11.7767 16.0803 11.7767 13.3457C11.7767 13.013 11.7431 12.6812 11.6766 12.3553H11.6963H15.4702C16.4691 12.3516 17.2769 11.5409 17.2769 10.542C17.2769 9.54311 16.4691 8.73235 15.4702 8.72866H15.4635H15.4575H11.6963L11.6963 7.7785C11.6963 6.33318 12.7402 5.28935 14.2658 5.28935H15.4422H15.4448H15.4702C16.4501 5.27453 17.2367 4.47603 17.2367 3.49607C17.2367 2.51611 16.4501 1.71763 15.4702 1.70281ZM8.29721 13.3456C8.29721 12.5326 7.63813 11.8736 6.82512 11.8736C6.01212 11.8736 5.35303 12.5326 5.35303 13.3456C5.35303 14.1587 6.01212 14.8177 6.82512 14.8177C7.63813 14.8177 8.29721 14.1587 8.29721 13.3456Z" fill="white"/>
</svg>
